<?xml version="1.0" encoding="UTF-8" standalone="no"?>
<!-- Created with Inkscape (http://www.inkscape.org/) -->

<svg
   xmlns:dc="http://purl.org/dc/elements/1.1/"
   xmlns:cc="http://creativecommons.org/ns#"
   xmlns:rdf="http://www.w3.org/1999/02/22-rdf-syntax-ns#"
   xmlns:svg="http://www.w3.org/2000/svg"
   xmlns="http://www.w3.org/2000/svg"
   xmlns:sodipodi="http://sodipodi.sourceforge.net/DTD/sodipodi-0.dtd"
   xmlns:inkscape="http://www.inkscape.org/namespaces/inkscape"
   width="297mm"
   height="210mm"
   viewBox="0 0 297 210"
   version="1.1"
   id="svg8"
   inkscape:version="0.92.2 (5c3e80d, 2017-08-06)"
   sodipodi:docname="bomba.svg">
  <defs
     id="defs2" />
  <sodipodi:namedview
     id="base"
     pagecolor="#ffffff"
     bordercolor="#666666"
     borderopacity="1.0"
     inkscape:pageopacity="0.0"
     inkscape:pageshadow="2"
     inkscape:zoom="0.76015625"
     inkscape:cx="526.84754"
     inkscape:cy="454.75848"
     inkscape:document-units="mm"
     inkscape:current-layer="layer1"
     showgrid="false"
     inkscape:window-width="1366"
     inkscape:window-height="705"
     inkscape:window-x="-8"
     inkscape:window-y="-8"
     inkscape:window-maximized="1" />
  <metadata
     id="metadata5">
    <rdf:RDF>
      <cc:Work
         rdf:about="">
        <dc:format>image/svg+xml</dc:format>
        <dc:type
           rdf:resource="http://purl.org/dc/dcmitype/StillImage" />
        <dc:title></dc:title>
      </cc:Work>
    </rdf:RDF>
  </metadata>
  <g
     inkscape:label="Capa 1"
     inkscape:groupmode="layer"
     id="layer1"
     transform="translate(0,-87)">
    <ellipse
       style="opacity:1;fill:#000000;fill-opacity:1;fill-rule:nonzero;stroke:none;stroke-width:0.26499999;stroke-linecap:butt;stroke-linejoin:miter;stroke-miterlimit:4;stroke-dasharray:none;stroke-dashoffset:0;stroke-opacity:1;paint-order:stroke fill markers"
       id="path815"
       cx="125.12916"
       cy="195.8873"
       rx="40.897568"
       ry="39.157246" />
    <rect
       style="opacity:1;fill:#000000;fill-opacity:1;fill-rule:nonzero;stroke:none;stroke-width:0.26499999;stroke-linecap:butt;stroke-linejoin:miter;stroke-miterlimit:4;stroke-dasharray:none;stroke-dashoffset:0;stroke-opacity:1;paint-order:stroke fill markers"
       id="rect817"
       width="23.320314"
       height="13.574512"
       x="112.4248"
       y="151.85715" />
    <ellipse
       style="opacity:1;fill:#ffffff;fill-opacity:1;fill-rule:nonzero;stroke:none;stroke-width:0.26499999;stroke-linecap:butt;stroke-linejoin:miter;stroke-miterlimit:4;stroke-dasharray:none;stroke-dashoffset:0;stroke-opacity:1;paint-order:stroke fill markers"
       id="path819"
       cx="139.71016"
       cy="173.61073"
       rx="6.4391913"
       ry="12.182255"
       transform="rotate(6.3778121)" />
    <ellipse
       style="opacity:1;fill:#ffffff;fill-opacity:1;fill-rule:nonzero;stroke:none;stroke-width:0.26499999;stroke-linecap:butt;stroke-linejoin:miter;stroke-miterlimit:4;stroke-dasharray:none;stroke-dashoffset:0;stroke-opacity:1;paint-order:stroke fill markers"
       id="path819-4"
       cx="103.6464"
       cy="207.8532"
       rx="6.4391913"
       ry="12.182255"
       transform="rotate(-9.5789206)" />
    <ellipse
       style="opacity:1;fill:#000000;fill-opacity:1;fill-rule:nonzero;stroke:none;stroke-width:0.26499999;stroke-linecap:butt;stroke-linejoin:miter;stroke-miterlimit:4;stroke-dasharray:none;stroke-dashoffset:0;stroke-opacity:1;paint-order:stroke fill markers"
       id="path836"
       cx="153.63596"
       cy="163.51483"
       rx="2.9585474"
       ry="4.5248375"
       transform="rotate(10.489268)" />
    <ellipse
       style="opacity:1;fill:#000000;fill-opacity:1;fill-rule:nonzero;stroke:none;stroke-width:0.26499999;stroke-linecap:butt;stroke-linejoin:miter;stroke-miterlimit:4;stroke-dasharray:none;stroke-dashoffset:0;stroke-opacity:1;paint-order:stroke fill markers"
       id="path836-2"
       cx="122.6053"
       cy="196.50027"
       rx="2.9585474"
       ry="4.5248375"
       transform="rotate(-3.635412)"
       inkscape:transform-center-x="6.4960117"
       inkscape:transform-center-y="2.711397" />
    <path
       style="opacity:1;fill:#000000;fill-opacity:1;fill-rule:nonzero;stroke:none;stroke-width:0.1;stroke-linecap:butt;stroke-linejoin:miter;stroke-miterlimit:4;stroke-dasharray:none;stroke-dashoffset:0;stroke-opacity:1;paint-order:stroke fill markers"
       id="path853"
       d="m 125.09501,156.55602 c -1.00553,-0.0575 -2.04628,-0.4225 -2.6278,-1.29975 -0.13104,-0.19769 -0.2133,-0.4237 -0.31996,-0.63554 -0.49592,-1.4991 -0.48773,-3.10694 -0.51601,-4.67041 -0.0677,-1.14699 0.091,-2.28201 0.22228,-3.41772 0.1427,-1.01428 0.40125,-1.99686 0.70323,-2.97309 0.43789,-0.86595 0.77986,-1.77759 1.22216,-2.64055 0.34168,-0.80985 0.66788,-1.63054 0.93502,-2.4686 0.30528,-0.94662 0.79324,-1.81642 1.12018,-2.75413 0.28195,-0.72031 0.55211,-1.42708 0.95021,-2.09146 0.40242,-0.63411 0.86757,-1.21487 1.38831,-1.75464 0.41669,-0.5317 0.90063,-0.9827 1.41713,-1.41191 0.52538,-0.37832 1.14956,-0.58512 1.73411,-0.8588 0.76983,-0.477 1.66579,-0.6239 2.51582,-0.89453 0.98013,-0.3536 2.00328,-0.52289 3.03687,-0.61361 0.78142,0.0146 1.53903,-0.14376 2.30534,-0.26632 0.68517,-0.10323 1.37857,-0.12214 2.07013,-0.13486 0.86066,-0.009 1.72138,-0.006 2.58206,-0.005 0.85718,0.0537 1.67263,0.31922 2.4409,0.69011 0.81816,0.44117 1.49862,1.0757 2.12165,1.75611 0.48258,0.53641 0.67697,1.23719 1.05247,1.83608 0.4067,0.65286 0.56865,1.40538 0.92642,2.08409 0.35965,0.64967 0.81518,1.22892 1.27367,1.80861 0.39241,0.49732 0.87079,0.9167 1.38255,1.28648 0.64851,0.34315 1.32015,0.64921 1.99164,0.95097 0.6236,0.20011 1.25752,0.38644 1.89598,0.53707 0.99839,0.24061 1.91938,0.69503 2.80769,1.1974 0.83163,0.54223 1.55622,1.22276 2.24278,1.935 0.63671,0.60041 1.30365,1.16196 1.75635,1.91862 0.37347,0.74276 0.68887,1.49291 0.88609,2.30323 0.16392,0.7658 0.18732,1.55002 0.20045,2.33 -0.005,0.72373 0.0353,1.44911 -0.0466,2.16901 -0.11201,0.61973 -0.25938,1.23603 -0.0825,1.85576 0.15248,0.26433 0.45561,0.29872 0.73161,0.35144 0.72252,0.15212 0.50739,1.17391 -0.21513,1.02179 v 0 c -0.68733,-0.15331 -1.26825,-0.41368 -1.52989,-1.12156 -0.17166,-0.75293 -0.11189,-1.48472 0.0595,-2.23478 0.0909,-0.66908 0.0196,-1.35069 0.039,-2.02425 -0.0116,-0.70359 -0.0289,-1.41133 -0.17162,-2.10308 -0.16927,-0.71289 -0.4484,-1.36927 -0.77363,-2.02278 -0.38591,-0.69478 -1.0609,-1.15546 -1.60558,-1.71893 -0.61666,-0.64042 -1.26414,-1.25395 -2.00497,-1.75064 -0.80357,-0.45479 -1.63351,-0.87261 -2.53726,-1.09088 -0.70097,-0.17062 -1.40066,-0.36491 -2.08162,-0.6006 -0.73479,-0.3326 -1.47489,-0.66035 -2.17491,-1.05722 -0.58784,-0.42694 -1.13742,-0.91324 -1.58941,-1.48495 -0.49788,-0.6317 -0.99159,-1.26445 -1.38006,-1.97296 -0.34145,-0.66084 -0.52193,-1.37623 -0.88981,-2.01957 -0.33445,-0.55106 -0.53254,-1.16973 -0.93564,-1.68076 -0.52965,-0.58713 -1.1136,-1.13193 -1.8078,-1.5206 -0.62216,-0.30901 -1.28822,-0.52292 -1.9833,-0.58402 -0.85398,-7.9e-4 -1.708,-0.003 -2.56195,0.005 -0.64284,0.0117 -1.28753,0.0275 -1.92464,0.12199 -0.79052,0.12591 -1.57405,0.28723 -2.37961,0.27545 -0.95744,0.0821 -1.90424,0.23899 -2.81139,0.56862 -0.80824,0.25566 -1.65805,0.39148 -2.38909,0.84503 -0.50552,0.23637 -1.04039,0.42113 -1.51059,0.7172 -0.48804,0.40302 -0.93886,0.83155 -1.33226,1.3333 -0.46657,0.48204 -0.88223,0.99945 -1.2436,1.56588 -0.36167,0.60323 -0.60133,1.24647 -0.86057,1.90045 -0.32753,0.92779 -0.79705,1.79395 -1.1111,2.72708 -0.28739,0.89199 -0.6294,1.76853 -1.00121,2.62824 -0.41851,0.80663 -0.7241,1.66779 -1.15277,2.47073 -0.28301,0.91484 -0.52832,1.83396 -0.6635,2.78446 -0.12603,1.08979 -0.28261,2.17821 -0.21554,3.27898 0.0254,1.41661 0.0162,2.8703 0.41493,4.24064 0.39823,0.91861 0.99955,1.2782 2.00482,1.33965 0.73836,0 0.73836,1.04419 0,1.04419 z"
       inkscape:connector-curvature="0" />
    <ellipse
       style="opacity:1;fill:#000000;fill-opacity:1;fill-rule:nonzero;stroke:none;stroke-width:0.26499999;stroke-linecap:butt;stroke-linejoin:miter;stroke-miterlimit:4;stroke-dasharray:none;stroke-dashoffset:0;stroke-opacity:1;paint-order:stroke fill markers"
       id="path855"
       cx="169.40308"
       cy="157.71207"
       rx="6.3694668"
       ry="7.023468" />
  </g>
</svg>
